<?xml version="1.0" encoding="UTF-8"?><svg id="Calque_1" xmlns="http://www.w3.org/2000/svg" width="5.0024mm" height="4.9953mm" viewBox="0 0 14.18 14.16"><path d="M12.8,14.16H1.38c-.76,0-1.38-.62-1.38-1.38V1.38C0,.62,.62,0,1.38,0H12.8c.76,0,1.38,.62,1.38,1.38V12.78c0,.76-.62,1.38-1.38,1.38Z" fill="#054780"/><g><path d="M1.24,9.88H5.46c.46,0,.72,.54,.42,.9l-1.08,1.3h6.28V7.32c0-.04-.02-.08-.06-.12l-2.36-1.66c-.04-.04-.12-.04-.16,0l-1.68,1.36c-.06,.04-.14,.04-.2-.02l-.54-.68c-.04-.06-.04-.14,.02-.2l2.42-1.98c.04-.04,.12-.04,.16,0l3.56,2.62c.04,.02,.06,.06,.06,.1v5.36h.88c.3,0,.56,.24,.56,.56v.18c0,.28-.24,.52-.52,.52H1c-.3,0-.56-.24-.56-.56v-.06c0-.14,.06-.36,.16-.46l1.16-1.28h-.54c-.3,0-.54-.24-.54-.54H.68c0-.32,.24-.58,.56-.58Z" fill="#fff"/><g><path d="M4.14,1l-1.46,6.14c-.1,.4,.2,.78,.62,.78h.56v2.38l.04,.04c.22,.2,.66,.18,.86-.04h0v-2.38h.62c.4,0,.72-.38,.62-.78L4.46,1c-.04-.18-.28-.18-.32,0Z" fill="#fff"/><path d="M4.28,10.52c-.16,0-.34-.04-.44-.14l-.06-.04v-2.36h-.52c-.2,0-.4-.1-.54-.26-.12-.16-.18-.38-.12-.58L4.06,1c.02-.1,.1-.16,.2-.16h0c.1,0,.18,.06,.2,.16l1.52,6.14c.06,.2,0,.42-.12,.58-.12,.16-.32,.26-.54,.26h-.58v2.36l-.02,.02c-.06,.08-.26,.16-.44,.16Zm-.4-.24l.02,.02c.2,.18,.6,.16,.78-.02v-2.42h.68c.18,0,.34-.08,.46-.22,.12-.14,.16-.32,.1-.5L4.4,1c-.02-.06-.08-.08-.12-.08s-.1,.02-.12,.1l-1.46,6.14c-.04,.18,0,.36,.1,.5,.12,.14,.28,.22,.46,.22h.62v2.4Z" fill="#004880"/></g><g><path d="M2.46,1L.98,7.14c-.1,.4,.2,.78,.62,.78h.56v2.38l.04,.04c.22,.2,.66,.18,.86-.04h0v-2.38h.62c.4,0,.72-.38,.62-.78L2.78,1c-.04-.18-.28-.18-.32,0Z" fill="#fff"/><path d="M2.6,10.52c-.16,0-.34-.04-.44-.14l-.06-.04v-2.36h-.5c-.2,0-.4-.1-.54-.26-.12-.16-.18-.38-.12-.58L2.4,1h0c.02-.1,.1-.16,.2-.16h0c.1,0,.18,.06,.2,.16l1.52,6.14c.06,.2,0,.42-.12,.58-.12,.16-.32,.26-.54,.26h-.58v2.36l-.02,.02c-.08,.08-.26,.16-.46,.16Zm-.4-.24l.02,.02c.2,.18,.6,.16,.78-.02v-2.42h.68c.18,0,.34-.08,.46-.22,.12-.14,.16-.32,.1-.5L2.74,1c-.02-.06-.08-.08-.12-.08h0c-.04,0-.1,.02-.12,.1L1.04,7.16c-.04,.18,0,.36,.1,.5,.12,.14,.28,.22,.46,.22h.62l-.02,2.4Z" fill="#004880"/></g><circle cx="8.64" cy="7.58" r=".82" fill="#fff"/><path d="M9.54,11.72h-1.78c-.04,0-.06-.02-.06-.06v-2.3c0-.38,.3-.68,.68-.68h.54c.38,0,.68,.3,.68,.68v2.3c0,.02-.02,.06-.06,.06Z" fill="#fff"/></g></svg>