<?xml version="1.0" encoding="UTF-8"?><svg id="Calque_1" xmlns="http://www.w3.org/2000/svg" width="5.0024mm" height="4.9997mm" viewBox="0 0 14.18 14.1725"><path d="M14.16,12.795c-4.72,1.84-9.42,1.84-14.16-.02,.18-.54,.34-1.06,.5-1.58,.4-1.32,.82-2.62,1.22-3.94,.04-.12,.02-.26-.02-.38C1.14,5.075,.58,3.295,.02,1.515,.02,1.495,.02,1.475,0,1.395,4.72-.465,9.42-.465,14.18,1.395c-.16,.5-.3,.96-.44,1.44-.42,1.34-.84,2.68-1.24,4.02-.06,.18-.02,.4,.02,.58,.54,1.76,1.1,3.54,1.64,5.3,0-.02,0,0,0,.06m-.4-11.22C9.3-.085,4.88-.085,.44,1.575c.02,.08,.02,.12,.04,.16,.52,1.68,1.04,3.36,1.56,5.04,.06,.18,.06,.38,.02,.56-.42,1.34-.84,2.7-1.26,4.04-.12,.4-.24,.78-.36,1.18,2.44,.96,4.94,1.36,7.54,1.24,1.98-.1,3.92-.5,5.78-1.24-.02-.06-.02-.1-.02-.14-.54-1.72-1.08-3.44-1.6-5.16-.04-.1-.04-.24-.02-.34,.34-1.08,.68-2.16,1.02-3.26,.18-.66,.4-1.36,.62-2.08" fill="#1972b1" fill-rule="evenodd"/><path d="M13.76,1.575c-.22,.72-.42,1.4-.64,2.1-.34,1.08-.68,2.16-1.02,3.26-.04,.1-.02,.24,.02,.34,.52,1.72,1.06,3.44,1.6,5.16,.02,.04,.02,.08,.02,.14-1.86,.74-3.78,1.16-5.78,1.24-2.58,.12-5.08-.28-7.52-1.24,.12-.4,.24-.8,.36-1.18,.42-1.34,.84-2.68,1.24-4.04,.06-.16,.04-.38-.02-.56C1.52,5.095,1,3.415,.48,1.735c-.02-.04-.02-.08-.04-.16C4.88-.085,9.3-.085,13.76,1.575M.76,1.735c.02,.08,.02,.12,.04,.16,.52,1.66,1.04,3.3,1.54,4.96,.04,.12,.06,.28,.02,.4-.24,.82-.5,1.64-.76,2.44-.28,.9-.56,1.78-.84,2.7,1.9,.74,3.86,1.1,5.88,1.16,2.34,.06,4.6-.32,6.8-1.16-.02-.06-.02-.1-.04-.14-.52-1.68-1.04-3.36-1.56-5.04-.02-.08-.04-.2,0-.28,.4-1.32,.82-2.62,1.22-3.94,.14-.42,.26-.84,.4-1.28C9.2,.195,4.98,.195,.76,1.735" fill="#fff" fill-rule="evenodd"/><path d="M11.84,7.235c-.02-.08-.04-.2,0-.28,.4-1.32,.82-2.62,1.22-3.94,.14-.42,.26-.84,.4-1.28-4.26-1.54-8.48-1.54-12.7,0,.02,.08,.02,.12,.04,.16,.52,1.66,1.04,3.3,1.54,4.96,.04,.12,.06,.28,.02,.4-.24,.82-.5,1.64-.76,2.44-.28,.9-.56,1.78-.84,2.7,1.9,.74,3.86,1.1,5.88,1.16,2.34,.06,4.6-.32,6.8-1.16-.02-.06-.02-.1-.04-.14-.52-1.66-1.06-3.34-1.56-5.02" fill="#1972b1" fill-rule="evenodd"/><path d="M6.1,5.255q-.46-.02-.36-.52c.02-.12-.06-.28-.1-.4-.28-.66-.14-.82,.58-.9,.68-.08,1.34-.1,2.02,.04,.44,.1,.52,.26,.38,.68-.04,.14-.1,.26-.14,.4-.02,.08,0,.18,.02,.28,0,.12,.04,.26-.02,.36-.02,.06-.2,.04-.3,.04-.02,0-.06,.02-.08,.02-.02,.04-.06,.06-.08,.1,.08,.04,.16,.06,.22,.1,.44,.36,.64,.84,.64,1.38,.02,1.08,0,2.16,0,3.24,0,.34-.12,.56-.48,.6-.72,.06-1.42,.04-2.14,.02-.18,0-.36-.04-.54-.06-.26-.04-.4-.22-.38-.44,0-1.22,.02-2.44,.04-3.66,.02-.42,.24-.76,.56-1.02,.08-.06,.16-.1,.26-.14-.04-.06-.08-.08-.1-.12m2.02-.2c.14-.38,.28-.74,.38-1.1,.06-.18-.04-.28-.2-.3-.8-.16-1.62-.16-2.42,0-.08,.02-.22,.18-.2,.24,.1,.38,.24,.76,.38,1.16,.24-.16,.26-.38,.26-.58q0-.34,.34-.34c.3,0,.62,.02,.92,0,.22,0,.32,.06,.3,.3-.04,.22-.02,.44,.24,.62m-1.68,.14h1.3c-.2-.14-1.12-.14-1.3,0" fill="#fff" fill-rule="evenodd"/><path d="M5.72,2.275c.1-.24,.18-.48,.3-.74h-.14c-.06,0-.08-.02-.08-.06v-.16c0-.04,.02-.06,.06-.06,.2-.02,.4-.02,.62-.04,.04,0,.06,.02,.06,.06v.18c0,.04-.02,.06-.06,.06h-.1c-.06,0-.06,.02-.04,.06,.06,.12,.14,.26,.2,.38,.04,.08,.08,.14,.12,.22,0,.02,.02,.04,.04,.06,.02-.02,.02-.04,.04-.06,.1-.2,.2-.4,.32-.62q.02-.06-.04-.06h-.1c-.04,0-.06-.02-.06-.06v-.18c0-.04,.02-.06,.06-.06h.62c.04,0,.06,.02,.06,.06v.18c0,.04-.02,.06-.06,.06-.18,0-.14-.02-.22,.12-.16,.26-.3,.54-.42,.8-.04,.06-.02,.08,.04,.08q.14,0,.14,.12v.1c0,.04-.02,.06-.06,.06-.18,0-.36,0-.54,.02-.06,0-.08-.02-.08-.08v-.16c0-.04,.02-.06,.06-.08h.06c.06,0,.06-.02,.04-.06-.1-.18-.18-.34-.28-.52-.02-.04-.04-.08-.06-.12h-.02c-.1,.24-.2,.48-.3,.72h.1c.08,0,.1,0,.1,.1v.1c0,.06-.02,.1-.08,.1-.18,.02-.36,.02-.54,.04-.02,0-.04-.02-.06-.04-.02-.02-.02-.08-.02-.16,0-.04,.02-.06,.06-.06h.1c.04,0,.04-.02,.02-.06-.06-.1-.12-.18-.18-.28-.12-.18-.24-.36-.38-.54-.04-.06-.08-.08-.14-.06h-.06c-.04,0-.06-.02-.06-.06,0-.06-.02-.12-.02-.18,0-.04,.02-.06,.04-.06,.2-.02,.42-.06,.62-.06,.02,0,.06,.02,.06,.04,.02,.06,.02,.14,.02,.2,0,.02-.04,.04-.06,.04-.04,.02-.08,0-.12,.02-.06,0-.06,.02-.04,.06,.1,.16,.2,.3,.3,.46,.04,.06,.08,.12,.1,.16,.04,.02,.06,.02,.06,.02" fill="#fff" fill-rule="evenodd"/><path d="M11.88,2.895q.02-.04,.02-.06c.06-.18,.1-.36,.16-.54,.02-.06,.02-.08-.06-.1-.16-.04-.16-.02-.12-.18,.04-.16,.02-.14,.2-.1,.16,.04,.32,.1,.48,.14,.06,.02,.08,.04,.06,.1-.02,.04-.04,.1-.04,.14-.02,.06-.04,.06-.1,.04-.02,0-.06-.02-.08-.02-.04-.02-.06,0-.08,.04-.08,.28-.18,.56-.26,.84-.02,.04,0,.06,.04,.08h0c.16,.04,.14,.06,.1,.2s-.06,.14-.18,.1c-.14-.04-.28-.1-.44-.14-.06-.02-.06-.04-.04-.1,.02-.04,.02-.08,.04-.12q.02-.08,.1-.06c.02,0,.06,.02,.08,.02,0,0,0-.02,.02-.02-.18-.28-.38-.56-.58-.84,0,.02-.02,.04-.02,.06-.04,.18-.08,.38-.14,.56-.02,.04,0,.06,.04,.08,.04,0,.06,.02,.1,.02,.04,.02,.06,.04,.04,.08-.02,.06-.04,.12-.06,.18,0,.02-.04,.04-.06,.02-.18-.04-.36-.08-.56-.14-.02,0-.04-.04-.04-.06,0-.06,.02-.12,.04-.18,0-.04,.02-.04,.06-.04h.02q.12,.02,.16-.1c.06-.26,.12-.52,.18-.78,.02-.04,0-.06-.04-.08-.16-.04-.14-.04-.1-.16,0-.04,.02-.06,.02-.1s.02-.04,.06-.04c.2,.04,.38,.08,.58,.14,.06,.02,.08,.04,.06,.1-.02,.04-.02,.1-.04,.14-.02,.06-.04,.06-.1,.06-.04,0-.08-.02-.12-.02,0,0-.02,0-.02,.02,.24,.24,.42,.52,.62,.82" fill="#fff" fill-rule="evenodd"/><path d="M8.38,1.255c.16,.02,.32,.02,.48,.04,.14,.02,.22,.1,.2,.24,0,.08-.02,.16-.02,.24,0,.04-.04,.08-.08,.06h-.02c-.12-.02-.14-.02-.12-.14,0-.1-.02-.12-.12-.12-.22-.02-.44-.04-.66-.04-.08,0-.1,.02-.1,.08v.2c0,.06,.02,.1,.08,.1,.26,.02,.52,.04,.78,.06,.12,0,.22,.1,.2,.24-.02,.16-.04,.34-.06,.5-.02,.12-.1,.2-.22,.18-.3-.02-.58-.04-.88-.06-.1,0-.2-.1-.18-.22,0-.1,.02-.2,.02-.3,0-.04,.02-.06,.08-.06,.18,0,.16,0,.16,.16,0,.1,.02,.12,.12,.12,.2,.02,.4,.04,.6,.06,.1,.02,.14-.02,.14-.12,0-.06,.02-.14,.02-.2,0-.08-.02-.1-.1-.1-.26-.02-.5-.04-.76-.06-.16,0-.24-.1-.24-.24s0-.28,.02-.4c0-.06,.02-.12,.06-.18,.04-.04,.08-.06,.14-.06,.14,0,.3,0,.46,.02" fill="#fff" fill-rule="evenodd"/><path d="M4.68,2.655c-.04-.04-.08-.1-.12-.14,0-.02-.04-.02-.04,0-.18,.02-.34,.06-.52,.08-.06,0-.08,.04-.1,.08s-.02,.08-.04,.14c.06-.02,.1-.02,.14-.02,.08-.02,.08,0,.1,.08,0,.04,.02,.1,.02,.14,.02,.06,0,.08-.06,.08-.18,.04-.38,.06-.56,.1-.02,0-.04-.02-.06-.04-.02-.06-.04-.12-.04-.18,0-.04,.02-.06,.04-.06,.1,0,.14-.06,.16-.16,.08-.3,.2-.6,.3-.88,0-.02,.02-.04,.02-.06-.04,0-.08,.02-.12,.02-.06,.02-.08,0-.1-.06s-.02-.1-.04-.16c0-.04,0-.08,.06-.08,.2-.04,.4-.08,.6-.1,.04,0,.06,0,.08,.04,0,.06,.02,.12,.02,.18,0,.04-.02,.06-.06,.06s-.1,.02-.14,.02c.02,.02,.02,.04,.04,.06,.22,.26,.44,.54,.64,.82,.02,.02,.04,.04,.08,.04q.14-.02,.16,.14t-.14,.18c-.16,.02-.3,.04-.44,.06-.06,.02-.08,0-.1-.08,0-.04-.02-.1-.02-.14s.02-.08,.06-.08,.08-.02,.12-.02q.06-.04,.06-.06m-.48-.3h0c.06,0,.1-.02,.16-.02,.04-.02,.06-.04,.02-.06-.06-.08-.12-.16-.2-.22-.02-.04-.06-.02-.06,0-.04,.1-.08,.2-.1,.28-.02,.04,0,.04,.04,.04,.06,0,.1-.02,.14-.02" fill="#fff" fill-rule="evenodd"/><path d="M9.22,2.135c.02-.2,.06-.38,.08-.58,0-.1,.1-.2,.24-.18,.3,.04,.6,.1,.92,.16,.14,.02,.22,.14,.2,.26-.08,.38-.16,.74-.24,1.12-.02,.12-.12,.22-.26,.18-.28-.06-.56-.1-.84-.14-.12-.02-.2-.12-.18-.24,.04-.2,.06-.38,.08-.58m1.1,.18c.02-.14,.06-.26,.08-.38,.02-.08,0-.12-.1-.12-.22-.04-.44-.08-.66-.1-.1-.02-.12,.02-.14,.1-.02,.2-.06,.4-.08,.6,0,.06-.02,.12-.02,.18s.02,.1,.06,.12c.22,.04,.44,.08,.64,.12,.08,.02,.12-.02,.14-.1,.02-.16,.04-.3,.08-.42" fill="#fff" fill-rule="evenodd"/><path d="M2.7,3.415c-.18,.06-.36,.1-.52,.16-.08,.02-.1,.02-.14-.06-.02-.04-.02-.08-.04-.12-.02-.04,0-.06,.04-.08h.02c.16-.04,.14-.04,.1-.18-.08-.26-.16-.52-.24-.76q-.02-.06-.1-.04-.16,.06-.2-.1c-.04-.14-.06-.14,.1-.18,.16-.06,.34-.1,.5-.14q.08-.02,.1,.06c.02,.04,.02,.1,.04,.16,.02,.04,0,.06-.04,.08-.04-.04-.08-.04-.12-.02s-.06,.04-.04,.08c.04,.14,.08,.28,.12,.42,.04,.14,.08,.28,.12,.42,.02,.04,.04,.06,.08,.04,.16-.04,.32-.1,.48-.14,.04-.02,.06-.04,.04-.08-.02-.06-.04-.12-.04-.18-.02-.04,0-.08,.06-.1h.02c.12-.04,.14-.04,.16,.1,.04,.14,.06,.26,.1,.4,.02,.06,0,.08-.06,.1-.18,.06-.36,.1-.54,.16" fill="#fff" fill-rule="evenodd"/><path d="M11.98,11.595q0-.04-.02-.06c-.06-.18-.1-.36-.16-.52q-.02-.06-.1-.06c-.16,.04-.14,.06-.18-.1s-.06-.14,.1-.18c.14-.04,.3-.08,.44-.12,.06-.02,.08-.02,.1,.04,.02,.04,.02,.1,.04,.14q.02,.06-.04,.08c-.02,0-.06,.02-.08,.02-.04,.02-.06,.04-.04,.08,.08,.28,.16,.56,.24,.82,.02,.04,.04,.06,.08,.04h0c.16-.06,.16-.04,.2,.1s.04,.14-.12,.18-.32,.08-.48,.12c-.06,.02-.08,0-.1-.06-.02-.04-.02-.08-.04-.12q-.02-.08,.06-.1c.02,0,.06-.02,.08-.02v-.02c-.32-.14-.62-.28-.92-.44v.06c.04,.18,.08,.36,.12,.54,0,.04,.04,.06,.08,.04,.04,0,.08-.02,.12-.02,.04-.02,.08,0,.08,.06,.02,.06,.02,.12,.04,.18,0,.02-.02,.04-.04,.04-.2,.04-.4,.1-.6,.14-.02,0-.06-.02-.06-.04-.02-.06-.02-.12-.04-.18,0-.04,0-.06,.04-.06h.02q.12-.04,.1-.16c-.06-.26-.12-.52-.16-.76,0-.04-.02-.06-.08-.04-.16,.04-.12,.02-.16-.1,0-.04-.02-.06-.02-.1s0-.06,.04-.06c.18-.04,.36-.08,.52-.12,.06-.02,.08,0,.1,.06,.02,.04,.02,.1,.04,.14,.02,.06,0,.08-.06,.08-.04,0-.08,.02-.1,.02l-.02,.02c.34,.16,.64,.3,.98,.44" fill="#fff" fill-rule="evenodd"/><path d="M2.74,10.655c.14,.04,.28,.06,.42,.1,.12,.02,.18,.12,.16,.24-.02,.08-.02,.16-.04,.24,0,.04-.04,.06-.08,.06h-.02q-.12-.02-.1-.14c.02-.08,0-.12-.08-.14-.2-.04-.4-.1-.6-.14-.06-.02-.08,0-.1,.06s-.04,.12-.04,.18c-.02,.06,0,.08,.06,.1,.24,.06,.48,.12,.74,.16,.1,.02,.22,.12,.18,.26-.04,.16-.06,.32-.1,.48-.02,.1-.12,.18-.24,.16-.32-.06-.62-.14-.94-.22-.14-.06-.2-.16-.16-.28,.02-.1,.06-.18,.08-.28,.02-.04,.04-.06,.08-.04q.16,.04,.12,.2c-.02,.1,0,.12,.08,.14,.2,.06,.4,.1,.6,.14,.1,.02,.14,0,.16-.1,.02-.06,.02-.12,.04-.18,.02-.08,0-.1-.08-.12-.24-.06-.5-.12-.74-.18-.14-.04-.22-.14-.18-.28,.04-.12,.06-.24,.1-.38,.02-.06,.04-.12,.1-.14,.04-.02,.1-.04,.14-.02,.16,.04,.3,.08,.44,.12" fill="#fff" fill-rule="evenodd"/><path d="M6.02,12.495c-.02-.06-.06-.1-.08-.16,0-.02-.04-.02-.04-.02-.18-.02-.36-.02-.54-.04-.06,0-.08,0-.12,.06-.02,.04-.06,.08-.08,.12,.06,0,.1,0,.14,.02,.08,0,.08,.02,.08,.1,0,.04,0,.1-.02,.14,0,.06-.04,.08-.08,.06-.2-.02-.4-.04-.6-.06-.04,0-.04-.06-.04-.06,0-.06,.02-.12,.02-.2,0-.04,.04-.04,.06-.04h.12s.08-.08,.1-.12c.18-.26,.36-.48,.52-.74,.02-.02,.02-.04,.04-.06h-.1c-.06,0-.06-.02-.06-.08s0-.1,.02-.16c0-.04,.02-.06,.08-.06,.18,.02,.36,.02,.54,.04,.04,0,.06,.02,.06,.06,0,.06,0,.12-.02,.18,0,.04-.02,.06-.06,.06h-.14c0,.02,.02,.04,.02,.06,.14,.3,.3,.6,.48,.9,.02,.04,.04,.04,.08,.04q.16,0,.14,.16,0,.16-.16,.14c-.16,0-.32-.02-.48-.02-.08,0-.1-.02-.08-.1,0-.04,0-.1,.02-.14,0-.04,.02-.06,.08-.06,0,0,.04,0,.1-.02,0,.02,0,0,0,0m-.4-.4h.16c.04,0,.06-.02,.04-.06-.04-.08-.08-.18-.12-.26-.02-.04-.04-.04-.06,0-.06,.08-.12,.16-.18,.24-.02,.04,0,.06,.02,.06,.04,.02,.1,.02,.14,.02" fill="#fff" fill-rule="evenodd"/><path d="M9.22,11.935c-.02-.18-.04-.38-.06-.56-.02-.1,.06-.22,.18-.24,.28-.02,.56-.08,.84-.12,.14-.02,.24,.04,.26,.18,.08,.36,.14,.72,.22,1.1,.02,.12-.04,.24-.2,.26-.3,.04-.6,.1-.92,.14-.12,.02-.24-.08-.24-.18-.04-.2-.06-.4-.08-.58m1.08-.16c-.02-.12-.04-.26-.08-.38-.02-.08-.04-.1-.12-.08-.2,.04-.42,.06-.62,.1-.1,.02-.12,.04-.1,.14,.02,.2,.06,.4,.08,.6,0,.06,.02,.12,.02,.18s.04,.1,.1,.08c.24-.02,.46-.06,.68-.1,.08-.02,.12-.06,.1-.14,0-.14-.04-.28-.06-.4" fill="#fff" fill-rule="evenodd"/><path d="M6.9,12.835c-.04,0-.08-.04-.08-.08v-.16c0-.04,.04-.08,.08-.08h.12v-.9h-.32v.24c0,.06-.04,.1-.1,.1h-.1c-.04,0-.1-.04-.1-.1v-.46c0-.06,.04-.1,.1-.1h1.38c.06,0,.1,.04,.1,.1v.46c0,.06-.04,.1-.1,.1h-.1c-.06,0-.1-.04-.1-.1v-.24h-.34v.88h.12c.04,0,.08,.04,.08,.08v.16c0,.04-.04,.08-.08,.08h-.56v.02Z" fill="#fff" fill-rule="evenodd"/><path d="M4.28,12.615h0l-.56-.1c-.04,0-.08-.06-.06-.1l.02-.16c0-.04,.04-.08,.08-.08h.02l.12,.02,.16-.9-.32-.06-.04,.24c0,.04-.04,.08-.1,.08h-.02l-.1-.02c-.04,0-.08-.06-.08-.1l.08-.46c0-.04,.04-.08,.08-.08h.02l1.36,.26c.04,0,.08,.06,.08,.12l-.08,.46c0,.04-.04,.08-.08,.08h-.02l-.1-.04c-.04,0-.08-.06-.08-.1l.04-.24-.34-.06-.16,.88h0l.12,.02c.04,0,.08,.06,.06,.1l-.02,.16c0,.04-.04,.08-.08,.08" fill="#fff" fill-rule="evenodd"/><path d="M8.32,12.775c-.04,0-.08-.04-.08-.08l-.02-.16c0-.04,.02-.08,.06-.08h.14l-.06-.88h-.12c-.04,0-.08-.04-.08-.08l-.02-.16c0-.04,.04-.08,.08-.1l.56-.04h0c.04,0,.08,.04,.08,.08l.02,.16c0,.04-.02,.08-.06,.08h-.14l.06,.88h.12c.04,0,.08,.04,.08,.08l.02,.16c0,.04-.04,.08-.08,.08l-.56,.06h0Z" fill="#fff" fill-rule="evenodd"/></svg>