<?xml version="1.0" encoding="UTF-8"?><svg id="Calque_1" xmlns="http://www.w3.org/2000/svg" width="4.989mm" height="4.9768mm" viewBox="0 0 14.1419 14.1075"><g id="g3226"><g id="layer1"><g id="g8699"><path id="path8301" d="M14.1419,7.0536v.0695H0v-.0695C0,3.162,3.162,0,7.0536,0h0c3.9264,0,7.0883,3.162,7.0883,7.0536Z" fill="#19ae48"/><path id="path8303" d="M0,7.1231H14.1419c0,3.8569-3.1272,6.9841-6.9841,6.9841h-.139C3.162,14.1419,0,11.0147,0,7.1231H0Z" fill="#0994dd"/><path d="M13.7597,9.4859H.417l-.0347-.1042c-.2432-.7297-.3475-1.5289-.3475-2.2933H.0347v-.278c0-.4865,.0695-1.0077,.2085-1.4941H13.9334c.139,.5559,.2085,1.1119,.2085,1.7026v.139h0c0,.7992-.1042,1.5636-.3822,2.328h0Z" fill="#fff"/><path id="path8279" d="M1.0424,6.4976v1.9458h.3822v-.8339h.7992v-.3822h-.7992v-.3475h.8339v-.3822H1.0424" fill="#0994dd"/><path id="path8281" d="M3.4052,8.1655v-.6254c0-.2085-.1042-.4517-.5559-.4517-.1737,0-.3127,.0347-.417,.0695v.3475c.1042-.0695,.2432-.1042,.3822-.1042s.2432,.0347,.2432,.1737h0c-.0695-.0347-.139-.0347-.2085-.0347-.3127,0-.5212,.1737-.5212,.4865s.2432,.417,.4517,.417c.139,0,.2432-.0347,.3127-.1042,0,.0347,.0347,.0695,.0347,.1042h.417c-.1042-.0347-.139-.139-.139-.278Zm-.7297-.2085c0-.1042,.1042-.1737,.2085-.1737,.0695,0,.1042,0,.1737,.0347v.2432c-.0347,.0347-.1042,.0695-.2085,.0695s-.1737-.0695-.1737-.1737" fill="#0994dd"/><path id="path8283" d="M11.3622,8.1655v-.6254c0-.2085-.1042-.4517-.5559-.4517-.1737,0-.3127,.0347-.417,.0695v.3475c.1042-.0695,.2432-.1042,.3822-.1042s.2432,.0347,.2432,.1737h0c-.0695-.0347-.139-.0347-.2085-.0347-.3127,0-.5212,.1737-.5212,.4865s.2432,.417,.4517,.417c.139,0,.2432-.0347,.3127-.1042,0,.0347,.0347,.0695,.0347,.1042h.417c-.1042-.0347-.139-.139-.139-.278Zm-.7644-.2085c0-.1042,.1042-.1737,.2085-.1737,.0695,0,.1042,0,.1737,.0347v.2432c-.0347,.0347-.1042,.0695-.2085,.0695s-.1737-.0695-.1737-.1737" fill="#0994dd"/><path id="path8285" d="M5.0383,7.0883c-.1737,0-.278,.0347-.3822,.139-.0695-.1042-.2085-.139-.3475-.139-.1042,0-.2432,.0347-.3475,.139v-.1042h-.3475v1.3204h.3822v-.9034c.0347-.0695,.1042-.1042,.2085-.1042s.1737,.0695,.1737,.2085v.7992h.3822v-.9034c.0347-.0695,.1042-.1042,.1737-.1042,.1042,0,.1737,.0695,.1737,.2085v.7992h.3822v-.9382c0-.2432-.1737-.417-.4517-.417" fill="#0994dd"/><path id="path8287" d="M6.3587,6.4976h.3822v1.9458h-.3822v-1.9458Z" fill="#0994dd"/><path id="path8289" d="M9.1731,7.1231l-.4865-.5907h-.417v1.9111h.417v-1.3204l.4865,.6254,.4865-.6254v1.3204h.417v-1.9111h-.417l-.4865,.5907" fill="#0994dd"/><path id="path8291" d="M5.7332,7.0883h.3822v1.3551h-.3822v-1.3551Z" fill="#0994dd"/><path id="path8293" d="M5.907,6.4976c-.139,0-.2432,.1042-.2432,.2432s.1042,.2432,.2432,.2432,.2432-.1042,.2432-.2432c0-.139-.1042-.2432-.2432-.2432" fill="#0994dd"/><path id="path8295" d="M11.9181,7.2273v-.139h-.3475v1.3551h.3822v-.8339c.0695-.0695,.139-.139,.278-.139,.1042,0,.1737,.0347,.2085,.0695v-.417c-.0347-.0347-.1042-.0347-.1737-.0347-.139,0-.278,.0347-.3475,.139" fill="#0994dd"/><path id="path8297" d="M13.169,8.096c-.1042,0-.1737-.1042-.1737-.1737v-.4517h.3127v-.3475h-.3127v-.5212l-.3475,.139v.3475h-.2085v.3475h.2085v.5212c0,.278,.1042,.4865,.4517,.4865,.1042,0,.1737,0,.2432-.0347v-.3822c-.0347,.0347-.0695,.0695-.1737,.0695" fill="#0994dd"/><path id="path8299" d="M7.1578,8.7909h.417l.6254-1.7026h-.417l-.2432,.7297-.278-.7297h-.417l.5212,1.2161-.2085,.4865" fill="#0994dd"/></g></g></g></svg>