<?xml version="1.0" encoding="UTF-8"?><svg id="Calque_1" xmlns="http://www.w3.org/2000/svg" viewBox="0 0 14.772 15.5738"><ellipse cx="7.386" cy="7.7869" rx="7.386" ry="7.7869" fill="#fff"/><path d="M6.8844,12.5928c1.0617,.4577,2.9184-.9548,1.2652-1.0183-2.2128-.0851-4.0532-2.2872-4.0532-2.2872,.5333,2.9588,2.788,3.3056,2.788,3.3056Z" fill="#fff" opacity=".5"/><g><path d="M4.9443,2.2619s-1.383,.8367-1.6872,1.6112-.4979,1.3277,.2489,2.2128,.9681,.8021,.8021,1.7011-.4702,1.6181-.4702,1.6181c0,0,.9128-.6085,1.2447-1.2447s.3596-1.6077-.2766-2.3269-.9494-1.0476-.5853-1.9604,.7236-1.6112,.7236-1.6112Z" fill="#be1622"/><path d="M8.0699,2.2619s-1.383,.8367-1.6872,1.6112-.4979,1.3277,.2489,2.2128,.9681,.8021,.8021,1.7011-.4702,1.6181-.4702,1.6181c0,0,.9128-.6085,1.2447-1.2447s.3596-1.6077-.2766-2.3269-.9494-1.0476-.5853-1.9604,.7236-1.6112,.7236-1.6112Z" fill="#be1622"/><path d="M11.1954,2.2619s-1.383,.8367-1.6872,1.6112-.4979,1.3277,.2489,2.2128,.9681,.8021,.8021,1.7011-.4702,1.6181-.4702,1.6181c0,0,.9128-.6085,1.2447-1.2447s.3596-1.6077-.2766-2.3269-.9494-1.0476-.5853-1.9604,.7236-1.6112,.7236-1.6112Z" fill="#be1622"/><path d="M2.4826,8.4369s-1.0704,.4979-1.0704,1.466,1.2917,3.409,6.2151,3.409,5.7325-2.5621,5.7325-3.3321c0-.9449-1.058-1.5429-1.058-1.5429,0,0,.5331,.7517,.3872,1.3598-.1383,.5764-1.3,1.8487-5.0064,1.8764s-5.3199-.8554-5.5872-1.8764c-.1386-.5295,.3872-1.3598,.3872-1.3598Z" fill="#be1622"/></g></svg>