<svg id="Calque_1" data-name="Calque 1" xmlns="http://www.w3.org/2000/svg" viewBox="0 0 14.772 15.5738"><ellipse cx="7.386" cy="7.7869" rx="7.386" ry="7.7869" fill="#fff"/><circle cx="4.943" cy="3.6658" r="0.912" fill="#312783"/><path d="M4.8051,9.1715s-.0327,2.8923-.0327,3.1374-.2941.4085-.49.4412a.4908.4908,0,0,1-.4812-.4412c.0089-.2288,0-5.4307,0-5.4307s-.3358,1.6887-.3848,1.8031a.4945.4945,0,0,1-.4739.2124c-.1961-.0327-.31-.3105-.2778-.49s.5719-2.8759.6536-3.1047.719-.4412,1.6249-.4412,1.5431.2125,1.6248.4412.6209,2.925.6536,3.1047-.0817.4575-.2778.49A.4943.4943,0,0,1,6.47,8.6813c-.0491-.1144-.3848-1.8031-.3848-1.8031s-.009,5.2019,0,5.4307a.4909.4909,0,0,1-.4813.4412c-.1961-.0327-.49-.1961-.49-.4412s-.0327-3.1374-.0327-3.1374Z" fill="#312783"/><circle cx="9.702" cy="3.7044" r="0.912" fill="#e30613"/><path d="M9.4106,9.6894s.0109,2.4838.0109,2.7126-.2724.36-.414.3576-.4248-.1493-.4139-.3672.0211-2.703.0211-2.703a2.39,2.39,0,0,1-.2935,0,.3733.3733,0,0,1-.3268-.4248c.0436-.2832.512-2.7452.512-2.7452s-.5338,1.7212-.6209,1.9282a.2913.2913,0,0,1-.37.207c-.1307-.0436-.3486-.1743-.2723-.3813s.8823-2.7561.97-3.0067.9259-.36,1.4257-.37h.064c.5.0108,1.3385.12,1.4257.37s.8933,2.8.97,3.0067-.1416.3377-.2723.3813a.2913.2913,0,0,1-.37-.207c-.0872-.207-.6209-1.9282-.6209-1.9282s.4684,2.462.512,2.7452a.3734.3734,0,0,1-.3268.4248,2.39,2.39,0,0,1-.2935,0s.01,2.4852.0211,2.703-.2723.3647-.4139.3672-.414-.1289-.414-.3576.0109-2.7126.0109-2.7126Z" fill="#e30613"/></svg>