<?xml version="1.0" encoding="UTF-8"?><svg id="Calque_1" xmlns="http://www.w3.org/2000/svg" width="4.9812mm" height="3.2456mm" viewBox="0 0 14.12 9.2"><path d="M13.58,7.9H.6c-.34,0-.6-.26-.6-.6v-.1H14.12v.16c-.02,.3-.26,.54-.54,.54Z" fill="#e6311f"/><rect y="4.32" width="14.12" height="2.38" fill="#29316f"/><path d="M14.12,4.04H0v-1.3c0-.6,.48-1.08,1.08-1.08H13.2c.5,0,.92,.4,.92,.92v1.46Z" fill="#f7c701"/><g><path d="M1.48,5.3c0-.02-.02-.02,0,0l-.7-.02c-.38,0-.68-.3-.68-.68,0-.18,.06-.36,.2-.5L4.04,.2c.26-.26,.68-.26,.96,0l.88,.84h1.76c.12-.72,1.06-1.04,1.7-1.04,1.08,0,1.98,.76,2.2,1.76,0,.02,0,.04,.02,.06,0,0,0,.02,.02,.02,.78,.42,1.32,1.22,1.38,2.14q0,.02,.02,.02s.02,0,.02,.02c.62,.38,1.04,1.04,1.04,1.82,0,.88-.54,1.64-1.32,1.96,0,0-.02,0-.02,.02v.7c0,.38-.3,.68-.68,.68H2.14c-.38,0-.68-.3-.68-.68l.02-3.22Z" fill="#fff"/><path d="M6.86,5.12c.24,0,.44-.2,.44-.44v-1.58c0-.24-.2-.44-.44-.44s-.44,.2-.44,.44v1.6c0,.22,.2,.42,.44,.42" fill="#1c3f8a"/><path d="M10.26,5.12c.24,0,.44-.2,.44-.44v-1.58c0-.24-.2-.44-.44-.44s-.44,.2-.44,.44v1.6c0,.22,.2,.42,.44,.42" fill="#1c3f8a"/><path d="M5.46,6.12c0-.02-.02-.02-.02-.02h-.12c-.2,0-.36-.16-.36-.36s.16-.36,.36-.36h1.02c.2,0,.36,.16,.36,.36s-.16,.36-.36,.36h-.06c-.02,0-.02,.02-.02,.02v1.28c0,.22-.18,.4-.4,.4s-.4-.18-.4-.4v-1.28Z" fill="#1c3f8a"/><path d="M9.14,2.68c-.24,0-.42,.18-.42,.42v.3h0l-.38-.54h0c-.08-.1-.2-.18-.34-.18-.24,0-.42,.18-.42,.42v1.6c0,.24,.18,.42,.42,.42s.42-.18,.42-.42v-.32h0l.36,.54c.08,.12,.2,.2,.36,.2,.24,0,.42-.18,.42-.42v-1.6c-.02-.22-.2-.42-.42-.42" fill="#1c3f8a"/><path d="M5.72,2.68c-.14,0-.26,.06-.34,.16h0l-.46,.52s0,.02-.02,.02-.02-.02-.02-.02l-.48-.52c-.08-.1-.2-.16-.34-.16-.24,0-.44,.2-.44,.44v1.58c0,.24,.18,.42,.42,.42s.42-.18,.42-.42l.02-.58s0-.02,.02-.02h0l.38,.42s0,.02,.02,.02,.02-.02,.02-.02l.36-.42h0s.02,0,.02,.02h0l.02,.58c0,.24,.18,.42,.42,.42s.42-.18,.42-.42v-1.58c-.02-.24-.2-.44-.44-.44" fill="#1c3f8a"/><path d="M10.3,6.36h-.22s-.02,0-.02-.02v-.36s0-.02,.02-.02h.22c.1,0,.18,.08,.18,.18,.02,.14-.06,.22-.18,.22m.02-.98h-.82c-.14,0-.24,.12-.24,.24v1.76c0,.24,.18,.42,.42,.42s.42-.18,.42-.42v-.4s0-.02,.02-.02h.18c.58,0,.86-.4,.86-.78,0-.44-.38-.8-.84-.8" fill="#1c3f8a"/><path d="M12,4.74h0c.58,.06,1.02,.54,1.02,1.12s-.42,1.04-.98,1.1c-.2,.02-.34,.18-.34,.38v.8c0,.02-.02,.04-.04,.04H2.5c-.02,0-.04-.02-.04-.04v-3.54c0-.2-.16-.36-.36-.36h-.52v-.02L4.52,1.16h.02l.9,.86c.12,.12,.36,.14,.48,0,.14-.14,.14-.36,0-.48L4.78,.42c-.14-.14-.36-.14-.48,0L.5,4.38c-.06,.06-.08,.14-.08,.22,0,.2,.16,.34,.36,.34h1c.02,0,.04,.02,.04,.04v3.54c0,.2,.16,.36,.36,.36H12.06c.2,0,.36-.16,.36-.36v-.9s0-.02,.02-.02c.76-.22,1.3-.9,1.3-1.74,0-.7-.4-1.32-1-1.62-.02,0-.02-.02-.04-.02s-.02-.02-.02-.04c0-.94-.56-1.74-1.36-2.12-.02,0-.02-.02-.02-.04-.12-.96-.94-1.7-1.94-1.7-.44,0-.84,.14-1.16,.38-.16,.12-.2,.32-.08,.48,.1,.16,.32,.2,.48,.08,.22-.16,.48-.26,.76-.26,.5,0,.92,.28,1.12,.7,.08,.16,.16,.42,.16,.82,0,.02,.02,.02,.02,.04,.02,0,.04,.02,.06,.02,.64,.18,1.12,.7,1.22,1.36,.02,.08,.04,.32,.04,.76,0,.02,0,.04,.02,.04" fill="#1c3f8a"/><path d="M4.94,7.04c0,.46-.36,.82-.82,.82-.32,0-.56-.12-.74-.32-.06-.06-.08-.14-.08-.24,0-.2,.16-.34,.34-.34,.08,0,.18,.04,.22,.06,.02,.02,.14,.1,.2,.1,.04,0,.06-.04,.06-.06,0-.04-.06-.1-.1-.1-.36-.18-.68-.42-.68-.86s.32-.78,.8-.78c.26,0,.5,.12,.66,.3,.06,.06,.08,.12,.08,.2,0,.18-.14,.3-.3,.3-.12,0-.28-.1-.28-.1-.04-.02-.06-.04-.1-.04s-.08,.04-.08,.08c0,.06,.06,.1,.22,.18,.44,.2,.6,.5,.6,.8" fill="#1c3f8a"/><path d="M7.8,7.08c-.28,0-.5-.22-.5-.5s.22-.5,.5-.5,.5,.22,.5,.5-.22,.5-.5,.5m0-1.76c-.7,0-1.26,.56-1.26,1.28,0,.7,.56,1.28,1.26,1.28s1.26-.56,1.26-1.28-.56-1.28-1.26-1.28" fill="#1c3f8a"/></g></svg>