<?xml version="1.0" encoding="UTF-8"?><svg id="Calque_1" xmlns="http://www.w3.org/2000/svg" width="5.2112mm" height="5.4941mm" xmlns:xlink="http://www.w3.org/1999/xlink" viewBox="0 0 14.772 15.5738"><defs><filter id="luminosity-noclip-2" x="5.2443" y="5.0097" width="2.8014" height="3.271" color-interpolation-filters="sRGB" filterUnits="userSpaceOnUse"><feFlood flood-color="#fff" result="bg"/><feBlend in="SourceGraphic" in2="bg"/></filter><mask id="mask" x="5.2443" y="5.0097" width="2.8014" height="3.271" maskUnits="userSpaceOnUse"><g filter="url(#luminosity-noclip-2)"><g><path d="M7.0612,7.3655s.0155,.1296-.0381,.2287c-.0815,.1507-.1601,.2211-.1601,.2211,0,0-.183-.2058-.183-.3278s.1451-.1525,.1983-.1525,.1829,.0305,.1829,.0305Z" fill="#1d1d1b"/><path d="M7.2594,7.4265s-.0085,.1918-.0762,.2897c-.0686,.0991-.1601,.1888-.1601,.1888,0,0,.4955,.3906,.7319,.3753s.2897-.0686,.2897-.183-.2668-.4422-.4345-.5222-.3507-.1487-.3507-.1487Z" fill="#1d1d1b"/><path d="M5.2468,5.1775c-.0339,.2263,.2744,.4422,.5032,.587s1.1217,.7319,1.1217,.7319c0,0-.2075-.4574-.4283-.6594s-1.1737-.8119-1.1966-.6594Z" fill="#1d1d1b"/><path d="M6.6801,5.0861c-.0434,.2168,.3507,.5108,.6175,.6328s.7242,.2363,.7471,.061-.3583-.4524-.6823-.6265-.6594-.1816-.6823-.0673Z" fill="#1d1d1b"/></g></g></mask></defs><ellipse cx="7.386" cy="7.7869" rx="7.386" ry="7.7869" fill="#fff"/><g><path d="M7.3265,13.2137h-2.133c-.126,0-.234-.144-.234-.252,0-.108-.144-.234-.342-.468s-.234-.36-.234-.648V3.3968c0-.1689,.216-.3891,.378-.4971s.144-.324,.144-.324h2.421s.5445,0,.5445,0h2.421s-.018,.216,.144,.324,.378,.3281,.378,.4971V11.8457c0,.288-.036,.414-.234,.648s-.342,.36-.342,.468-.108,.252-.234,.252h-2.6775Z" fill="#e30613"/><path d="M9.1648,6.5219c0,1.1892-.288,3.2288-.738,4.4494s-.648,1.5806-.648,1.5806h1.854s.3694-4.3544,.378-5.994c.01-1.89-.27-3.9822-.27-3.9822h-.895s.319,2.8662,.319,3.9462Z" fill="#fff"/><g><path d="M4.8939,7.2207s-.2751,.6528,0,1.323c.33,.804,1.134,1.6947,2.295,1.9408s1.2293-.5041,1.1759-.87c-.0657-.4502-.6089-1.0168-1.0679-1.0708s-.8151-.0118-.7922,.2779,.4422,.6709,.4422,.6709l.465-.0534s-.5565-.3832-.5489-.5651,.2211-.1382,.4422,0,.7395,.4965,.6861,.7481-.2143,.4608-.5794,.4269c-.7395-.0686-1.8061-.7152-2.188-1.479-.3812-.7624-.183-1.296-.183-1.296l-.1471-.0534Z" fill="#fff"/><g mask="url(#mask)"><path d="M7.0992,7.1687v-.1767s-2.0201-1.0139-2.2183-1.8068,2.1845,.6251,2.1824,1.4027c0,0,.7069,.3888,.7603,.1677s-.3583-.5032-.7014-.7395-.7706-.587-.6788-.8615,.2976-.3278,.2976-.3278l-.2058-.0991,.0915-.2211s.9395,.4574,1.2016,.5413,.2545-.0229,.0792-.1753-.3126-.2821-.3126-.2821l.0076-.0457s.7178,.3978,.7749,.7395c.0255,.1525-.1355,.1982-.1355,.1982,0,0,.2144,.2516,.1001,.4955s-.4955,.2363-.4955,.2363c0,0,.6175,.6017,.465,.9412s-1.0597-.0798-1.0597-.0798l-.0028,.1194,.0601,.0137c.1249,.0307,.2453,.071,.3468,.1108,.4269,.1677,.7166,.6937,.7216,.8691s-.0278,.4422-.5767,.465-1.3752-.6636-1.357-1.113c.0122-.3004,.2339-.3849,.5032-.385,.0514,0,.1522,.0128,.1522,.0128Z" fill="#fff"/></g></g><rect x="4.9168" y="2.3459" width="5.3753" height=".2298" fill="#9d9d9c"/><path d="M4.6864,12.5735h5.8246s-.165,.1317-.219,.26,.0293,.3803-.288,.3803-4.5518,.0318-4.8105,0-.1764-.2241-.3043-.3821c-.0917-.1132-.2028-.2582-.2028-.2582Z" fill="#9d9d9c"/></g></svg>