<?xml version="1.0" encoding="UTF-8"?><svg id="Calque_1" xmlns="http://www.w3.org/2000/svg" width="4.8966mm" height="4.8966mm" viewBox="0 0 13.88 13.88"><circle cx="6.94" cy="6.94" r="6.94" fill="#008061"/><g id="g2862"><path id="path14" d="M8.1219,11.5449v.42h-2.6v-.42h-1.96c-.2,0-.34-.2-.34-.44L2.4019,2.8049c0-.24,.2-.44,.42-.44h7.94c.24,0,.42,.2,.42,.44l-.82,8.3c0,.24-.16,.44-.34,.44h-1.9Z" fill="#fff"/><path id="path16" d="M3.8419,3.5649h5.32c-.52,.2-2.12,1.28-2.52,2H3.8419V3.5649h0Z" fill="#f5821f"/><path id="path18" d="M8.0819,9.2849c-.08,.72-.08,1.6-.08,2.54h-2.3c0-.92,.04-1.8,.12-2.54h2.26Z" fill="#ed1b2d"/><polygon id="polygon20" points="4.5219 8.2449 4.5219 8.5249 4.1419 8.5249 4.1419 8.8049 4.5219 8.8049 4.5219 9.1249 3.6819 9.1249 3.6819 7.6249 4.5219 7.6249 4.5219 7.9649 4.1419 7.9649 4.1419 8.2449 4.5219 8.2449" fill="#008061"/><polygon id="polygon22" points="6.4819 8.2449 6.4819 8.5249 6.1019 8.5249 6.1019 8.8049 6.4819 8.8049 6.4819 9.1249 5.6419 9.1249 5.6419 7.6249 6.4819 7.6249 6.4819 7.9649 6.1019 7.9649 6.1019 8.2449 6.4819 8.2449" fill="#008061"/><polygon id="polygon24" points="8.6419 8.2449 8.6419 8.5249 8.2619 8.5249 8.2619 8.8049 8.6419 8.8049 8.6419 9.1249 7.7819 9.1249 7.7819 7.6249 8.6419 7.6249 8.6419 7.9649 8.2619 7.9649 8.2619 8.2449 8.6419 8.2449" fill="#008061"/><polygon id="polygon26" points="5.1419 7.6249 5.1419 8.8049 5.5219 8.8049 5.5219 9.1249 4.6819 9.1249 4.6819 7.6249 5.1419 7.6249" fill="#008061"/><polygon id="polygon28" points="7.1619 8.6449 6.9819 7.6249 6.5619 7.6249 6.8019 9.1249 7.4019 9.1249 7.6819 7.6249 7.3419 7.6249 7.1619 8.6449" fill="#008061"/><polygon id="polygon30" points="8.8219 7.6249 9.2819 7.6249 9.2819 9.1249 8.8219 9.1249 8.8219 7.6249" fill="#008061"/><path id="path32" d="M9.2819,8.0849c.02-.16,.26-.12,.26-.02v1.08h.46v-1.26c0-.26-.38-.38-.72-.14v.34h0Z" fill="#008061"/><path id="path34" d="M8.3019,7.4249c.04-.58,.84-1.5,1.6-1.76V3.4649c-2.08,.94-3.44,2.34-3.74,3.96h2.14Z" fill="#ed1b2d"/></g></svg>