<?xml version="1.0" encoding="utf-8"?>
<!-- Generator: Adobe Illustrator 26.5.3, SVG Export Plug-In . SVG Version: 6.00 Build 0)  -->
<svg version="1.1" id="Calque_1" xmlns="http://www.w3.org/2000/svg" xmlns:xlink="http://www.w3.org/1999/xlink" x="0px" y="0px"
	 viewBox="0 0 14.8 15.6" style="enable-background:new 0 0 14.8 15.6;" xml:space="preserve">
<style type="text/css">
	.st0{fill:#FFFFFF;}
</style>
<ellipse class="st0" cx="7.4" cy="7.8" rx="7.4" ry="7.8"/>
<g>
	<g>
		<g>
			<g>
				<g>
					<path d="M11.3,8.5c-0.2-0.3-0.7-1.4-1.1-2.4C9.8,5.2,9.5,3.5,9.5,3.5s0.7-0.1,1-0.3c0.3-0.2,0.6-0.4,0.6-0.8s-0.3-0.3-0.4-0.4
						c-0.2,0-0.2,0.2-0.4,0.4c-0.2,0.2-1,0.3-1.3,0.3S8.5,2.9,8.6,3.2C8.6,3.5,9,4.7,9,4.7H5.8L5.7,4.3c0,0,0.7-0.2,0.7-0.4
						c0-0.1-0.1-0.1-0.3-0.1c0,0-1.9,0-2,0S3.8,3.9,3.8,4.2S4,4.8,4.1,4.8s0.8-0.3,0.8-0.3L5.1,5c0,0-1.8,3.8-1.9,4
						C3.1,9.2,3.2,9.6,3.4,9.6c0.3,0,3.4,0,3.7,0s0.4-0.1,0.5-0.2c0.1-0.2,2-2.9,2-2.9S9.8,7.2,10,7.6c0.2,0.4,1,1.9,1.2,2
						c0.2,0.1,0.5-0.1,0.5-0.3C11.7,9.1,11.5,8.8,11.3,8.5z M4.2,8.9L5.5,6l1.1,2.8H4.2z M7.3,8.4L6.1,5.5h3L7.3,8.4z"/>
				</g>
			</g>
		</g>
	</g>
	<g>
		<path d="M5.1,10.2c-0.3,0.6-0.9,1-1.7,1c-1.1,0-1.9-0.9-1.9-1.9c0-1.1,0.9-1.9,1.9-1.9c0,0,0,0,0,0l0.4-0.7c-0.1,0-0.2,0-0.3,0
			c-1.5,0-2.7,1.2-2.7,2.7s1.2,2.7,2.7,2.7c1.2,0,2.2-0.8,2.6-1.9H5.1z"/>
		<path d="M5,8.4l0.9-0.1C5.8,8,5.6,7.7,5.3,7.4L4.9,8.2C5,8.3,5,8.3,5,8.4z"/>
	</g>
	<g>
		<path d="M11.3,6.6c-0.1,0-0.2,0-0.3,0l0.3,0.7c0,0,0,0,0,0c1.1,0,1.9,0.9,1.9,1.9c0,1.1-0.9,1.9-1.9,1.9c-1.1,0-1.9-0.9-1.9-1.9
			c0-0.4,0.1-0.8,0.3-1.1L9.3,7.4C8.8,7.9,8.6,8.6,8.6,9.3c0,1.5,1.2,2.7,2.7,2.7S14,10.8,14,9.3S12.8,6.6,11.3,6.6z"/>
	</g>
</g>
</svg>
