<?xml version="1.0" encoding="UTF-8"?><svg id="Calque_1" xmlns="http://www.w3.org/2000/svg" width="5.2698mm" height="2.6028mm" viewBox="0 0 14.938 7.378"><path d="M13.819,.599c.28,0,.52,.24,.52,.52V6.259c0,.28-.24,.52-.52,.52H1.119c-.28,0-.52-.24-.52-.52V1.119c0-.28,.24-.52,.52-.52H13.819Z" fill="#d71718"/><path d="M13.819,.599c.28,0,.52,.24,.52,.52V6.259c0,.28-.24,.52-.52,.52H1.119c-.28,0-.52-.24-.52-.52V1.119c0-.28,.24-.52,.52-.52H13.819Z" fill="none" stroke="#fff" stroke-miterlimit="10" stroke-width="1.198"/><path d="M13.819,.599c.28,0,.52,.24,.52,.52V6.259c0,.28-.24,.52-.52,.52H1.119c-.28,0-.52-.24-.52-.52V1.119c0-.28,.24-.52,.52-.52H13.819Z" fill="#d71718"/><path d="M3.479,5.019c.82,0,1.48-.7,1.48-1.58s-.66-1.58-1.48-1.58-1.48,.7-1.48,1.58c0,.86,.66,1.58,1.48,1.58" fill="#fff"/><path d="M13.719,2.679c-.02-.04-.08-.08-.14-.08h-1.06c-.1,0-.2,.06-.26,.12-.04-.08-.12-.12-.22-.12h-.8c.06-.4,.12-.7,.12-.7,0-.06,0-.12-.04-.16-.04-.04-.1-.06-.16-.06h-1.02c-.06,0-.14,.04-.18,.08-.08-.06-.18-.08-.3-.08h-.4c-.14,0-.28,.04-.42,.14-.12,.1-.2,.2-.24,.34-.02,.14,0,.26,.1,.36,.04,.04,.08,.06,.12,.08h-1.76c-.06,0-.12-.02-.22-.02-.3,0-.58,.12-.8,.34l-.08,.08c0-.02-.02-.1-.04-.14-.02-.08-.04-.14-.06-.18l-.02-.04h0c-.12-.34-.32-.56-.46-.7-.18-.16-.46-.34-.64-.42-.18-.06-.28-.1-.46-.14-.5-.1-1.2-.04-1.2-.04h0c-.1,0-.18,.02-.26,.04-.46,.1-.72,.26-.74,.3h0c-.04,.02-.44,.26-.64,.76-.16,.4-.12,.66-.1,.8,.04,.28,.12,.5,.26,.68,.1,.14,.2,.24,.26,.3-.1,.22-.32,.74-.32,.84-.02,.18,0,.3,.1,.44,.12,.18,.36,.32,.68,.44,.14,.04,.3,.08,.48,.08h0s.36,.04,.8,0c.26-.02,.52-.06,.7-.14,.46-.16,.72-.36,.9-.56,0,.04,.02,.06,.02,.06v.04c-.02,.06-.06,.32-.06,.32,0,.04,0,.08,.02,.1s.06,.04,.1,.04h.62c.02,0,.06,0,.08-.02,.02,.02,.04,.02,.08,.02h1.4c.02,0,.06,0,.08-.02,.02,.02,.04,.02,.08,.02h1.22c.02,0,.06,0,.08-.02,.02,.02,.04,.02,.08,.02h.6c.02,0,.04,0,.06-.02,.02,0,.04,.02,.06,.02h.56c.06,0,.12-.06,.14-.12l.14-.78c0-.04,0-.08-.02-.1s-.06-.04-.1-.04h-.88c-.04,0-.08,.02-.1,.04-.02-.04-.06-.04-.1-.04h-.36c-.04,0-.08,.02-.1,.04h0c-.02-.02-.06-.04-.1-.04h-.64c-.04,0-.08,.02-.1,.06-.02-.04-.06-.06-.1-.06h-.36c-.04,0-.08,.02-.12,.06h0c-.02-.02-.06-.04-.1-.04h-.34c-.02,0-.04,0-.06,.02h-.02v-.02c.08,0,.14-.02,.2-.04h3.5c.12,0,.22-.1,.24-.2,0,0,.08-.42,.16-.92l.16,.64c.02,.06,0,.16-.02,.2l-.68,1.12c-.04,.06-.04,.12-.02,.16,.02,.04,.08,.08,.14,.08h1.02c.1,0,.22-.06,.28-.16l1.78-2.88c.02-.06,.04-.12,0-.18M4.259,3.939c-.12,.26-.28,.46-.44,.58-.1,.08-.22,.14-.32,.18h-.02c-.04-.02-.06-.04-.06-.06s-.02-.02-.02-.06v-.06h0c.02-.06,.04-.12,.06-.16s.06-.14,.08-.18l.08-.2c.06-.14,.12-.28,.14-.36l.04-.1c.06-.14,.12-.3,.14-.4h0v-.06h0v-.04c-.02-.04-.04-.08-.08-.12h0c-.06-.06-.14-.1-.2-.12h0c-.24-.12-.52-.16-.72-.18,.06-.02,.12-.06,.2-.08,.3-.06,.5-.02,.5-.02h-.02c.06,.02,.14,.04,.16,.06,.12,.06,.16,.08,.24,.14,.04,.04,.08,.08,.1,.12,.04,.04,.06,.1,.1,.16,.02,.04,.04,.08,.04,.12,.02,.08,.04,.16,.06,.26,.06,.18,.02,.4-.06,.58m1.82,.92h-.42c-.02,0-.04,0-.06,.02,.08-.12,.14-.24,.2-.36,.14,.2,.34,.32,.6,.34v.02h-.24l-.08-.02h0Zm2.54,.64h0l.02-.02-.02,.02Zm-.48-.26l-.08,.1v-.1h.08Z" fill="#430307"/><path d="M7.059,3.939c-.06,.06-.14,.1-.22,.1s-.14-.04-.18-.1c-.04-.06-.04-.14-.02-.22,.02-.08,.06-.16,.1-.22,.06-.06,.12-.1,.2-.1s.14,.04,.18,.1,.04,.14,.02,.22-.04,.16-.08,.22m1.26-1.12c.02-.08-.04-.14-.12-.14h-.64c-.08,0-.16,.06-.18,.14l-.02,.08c-.08-.16-.26-.26-.52-.26-.28,0-.54,.1-.76,.32-.2,.2-.32,.44-.38,.74s-.02,.54,.12,.74c.14,.22,.36,.32,.64,.32s.5-.18,.5-.18c.02,0,.12-.08,.12-.08,0,0-.02,.08-.02,.1-.02,.06,.04,.12,.12,.12h.64c.08,0,.16-.06,.18-.14l.32-1.76Z" fill="#f5e829"/><path d="M9.699,2.179c-.02,.12-.1,.22-.2,.3-.12,.08-.24,.12-.38,.12s-.24-.04-.32-.12c-.08-.08-.1-.18-.08-.3s.1-.22,.2-.3c.12-.08,.24-.12,.38-.12s.24,.04,.32,.12c.08,.08,.1,.18,.08,.3m-.46,2.42c-.02,.08-.1,.14-.18,.14h-.66c-.08,0-.14-.06-.12-.14l.3-1.76c.02-.08,.1-.14,.18-.14h.66c.08,0,.14,.06,.12,.14l-.3,1.76Z" fill="#f5e829"/><path d="M13.199,2.679c.08,0,.12,.06,.08,.12l-1.78,2.88c-.04,.06-.14,.12-.22,.12h-.64c-.08,0-.12-.06-.08-.12l.68-1.12c.04-.06,.06-.18,.04-.26l-.38-1.48c-.02-.08,.02-.14,.1-.14h.68c.08,0,.16,.06,.18,.14l.1,.52,.34-.54c.04-.06,.14-.12,.22-.12h.68Z" fill="#f5e829"/><path d="M10.439,4.599c-.02,.08-.1,.14-.18,.14h-.66c-.08,0-.14-.06-.12-.14l.48-2.7c.02-.08,.1-.14,.18-.14h.66c.08,0,.14,.06,.12,.14l-.48,2.7Z" fill="#f5e829"/><path d="M5.519,3.019s-.02-.1-.04-.16c-.02-.1-.04-.16-.06-.22-.12-.32-.28-.52-.44-.68-.18-.16-.44-.32-.62-.4-.18-.06-.28-.1-.46-.12-.16-.02-.68-.08-1.04,0-.48,.1-.72,.28-.72,.28,0,0-.42,.24-.62,.72-.14,.36-.12,.6-.1,.76,.02,.18,.08,.42,.24,.66,.12,.18,.3,.32,.3,.32,0,0-.34,.8-.36,.88-.02,.16,0,.26,.08,.4,.14,.2,.4,.34,.64,.42,.4,.14,1.14,.1,1.54-.06,.62-.22,.84-.5,1.06-.74,.3-.32,.54-.92,.58-1.26,.02-.14,.02-.3,.02-.4,.04-.16,.02-.28,0-.4m-1.2,.94c-.1,.22-.26,.46-.48,.62-.12,.08-.22,.16-.34,.18-.02,0-.06,.02-.1,.02-.14,.02-.32,0-.38-.04h0c-.04-.02-.08-.06-.1-.1-.02-.02-.02-.04-.02-.08v-.12c.02-.08,.04-.14,.06-.18s.06-.14,.08-.18c.08-.2,.18-.44,.24-.56,.04-.12,.16-.38,.18-.48h0v-.04h0v-.02c0-.02-.02-.06-.06-.08h0c-.2-.18-.5-.22-.68-.22h-.1c-.12,.02-.14,.1-.14,.1l-.16,.4s-.04-.04-.06-.12c0-.02-.02-.04-.02-.06,0-.04-.02-.06-.02-.08v-.1c.02-.12,.16-.48,.92-.52h.2s.1,0,.2,.02c.08,.02,.22,.06,.26,.08,.12,.06,.18,.08,.26,.16l.12,.12c.04,.06,.08,.1,.1,.18,.02,.04,.04,.08,.06,.12,.02,.08,.04,.16,.06,.28,.04,.24,.02,.5-.08,.7" fill="#f5e829"/><path d="M10.179,5.819c.04,0,.06-.02,.06-.06l.14-.78c0-.04-.02-.06-.04-.06h-.14c-.04,0-.06,.02-.06,.06l-.14,.78c0,.04,.02,.06,.04,.06h.14Z" fill="#f5e829"/><path d="M5.779,4.939h-.12c-.04,0-.06,.02-.08,.06l-.1,.16-.06-.18c0-.02-.04-.06-.06-.06h-.12c-.04,0-.04,.02-.04,.06l.1,.4,.02,.04-.06,.34c0,.04,.02,.06,.04,.06h.1c.04,0,.06-.02,.06-.06l.06-.34,.02-.04,.24-.4c.04-.02,.02-.04,0-.04" fill="#f5e829"/><path d="M7.219,4.939h-.2c-.04,0-.06,.02-.08,.06l-.12,.32v-.32c0-.04-.02-.06-.06-.06h-.2c-.04,0-.06,.02-.06,.06l-.14,.78c0,.04,.02,.06,.04,.06h.12c.04,0,.06-.02,.06-.06l.06-.3v.32c0,.02,.02,.02,.04,.02h.1c.02,0,.04-.02,.04-.02l.02-.02,.12-.3-.06,.3c0,.04,.02,.06,.04,.06h.12c.02,0,.06-.02,.06-.06l.14-.78c.02-.04,0-.06-.04-.06" fill="#f5e829"/><path d="M9.939,5.759l-.08-.4,.2-.38c.02-.02,0-.06-.02-.06h-.14c-.02,0-.06,.02-.08,.06l-.14,.24-.04,.06,.02-.06,.04-.24c0-.04-.02-.06-.04-.06h-.12c-.02,0-.06,.02-.06,.06l-.14,.78c0,.04,.02,.06,.04,.06h.12c.04,0,.06-.02,.06-.06l.04-.24,.02-.1,.02,.1,.04,.26c0,.02,.04,.06,.06,.06h.14c.04-.02,.06-.04,.06-.08" fill="#f5e829"/><path d="M8.659,4.979c0-.04-.02-.06-.04-.06h-.48c-.02,0-.06,.02-.06,.06l-.02,.12c0,.04,.02,.06,.04,.06h.2l-.32,.42c0,.02-.02,.02-.02,.04l-.02,.12c0,.04,.02,.06,.04,.06h.48c.04,0,.06-.02,.06-.06l.02-.12c0-.02-.02-.06-.04-.06h-.2l.32-.42v-.02h0v-.02l.04-.12Z" fill="#f5e829"/><path d="M6.279,5.759l-.04-.78c0-.02-.02-.06-.06-.06h-.18c-.04,0-.06,.02-.08,.06l-.32,.78c-.02,.02,0,.06,.04,.06h.14c.04,0,.06-.02,.08-.06l.02-.06h.12v.06c0,.02,.02,.06,.06,.06h.14c.04,0,.08-.02,.08-.06m-.3-.24h-.04l.1-.24v.24h-.06Z" fill="#f5e829"/><path d="M7.859,5.759l-.02-.78c0-.02-.02-.06-.06-.06h-.2c-.02,0-.06,.02-.08,.06l-.3,.78c-.02,.02,0,.06,.04,.06h.14c.04,0,.06-.02,.08-.06l.02-.06h.14v.06c0,.02,.02,.06,.06,.06h.14c.02,0,.04-.02,.04-.06m-.28-.24h-.06l.1-.24v.24h-.04Z" fill="#f5e829"/><path d="M9.259,5.759l-.04-.78c0-.02-.02-.06-.06-.06h-.2c-.02,0-.06,.02-.08,.06l-.28,.78c-.02,.02,0,.06,.04,.06h.14c.04,0,.06-.02,.08-.06l.02-.06h.12v.06c0,.02,.02,.06,.06,.06h.14c.04,0,.06-.02,.06-.06m-.3-.24h-.04l.1-.24v.24h-.06Z" fill="#f5e829"/></svg>