<?xml version="1.0" encoding="UTF-8"?><svg id="Calque_1" xmlns="http://www.w3.org/2000/svg" xmlns:xlink="http://www.w3.org/1999/xlink" viewBox="0 0 14.772 15.5738"><defs><filter id="outer-glow-1" filterUnits="userSpaceOnUse"><feOffset dx="0" dy="0"/><feGaussianBlur result="blur" stdDeviation="1"/><feFlood flood-color="#fff" flood-opacity="1"/><feComposite in2="blur" operator="in"/><feComposite in="SourceGraphic"/></filter></defs><ellipse cx="7.386" cy="7.7869" rx="7.386" ry="7.7869" fill="#fff"/><path d="M6.8844,12.5928c1.0617,.4577,2.9184-.9548,1.2652-1.0183-2.2128-.0851-4.0532-2.2872-4.0532-2.2872,.5333,2.9588,2.788,3.3056,2.788,3.3056Z" fill="#fff" opacity=".5"/><g><path d="M9.6877,9.3894c.1777,.0541,.2676,.1611,.2676,.3211,0,.1319-.0703,.2271-.2109,.2855-.0586,.0238-.126,.0368-.2021,.0389l-1.793,.0843v.7104l1.9248-.0908h.0313c.0986-.0043,.1885,.0173,.2676,.0649,.1143,.067,.1719,.1633,.1719,.2887,0,.1492-.0742,.2563-.2207,.3211-.0645,.026-.1357,.0411-.2148,.0454l-1.96,.0779v.8434c1.1367,.2054,2.168,.3341,3.0938,.386,.3428,.0195,.5146,.0681,.5146,.146,0,.0519-.1094,.1298-.3262,.2336-.5352,.2574-.9434,.386-1.2207,.386-.127,0-.3408-.027-.6426-.0811-1.7051-.3093-3.0762-.7245-4.1133-1.2457-.3418,.4195-.7041,.7472-1.085,.9829-.1523,.0952-.293,.1427-.4219,.1427-.0967,0-.1846-.0281-.2637-.0843-.0791-.0584-.1182-.1276-.1182-.2076,0-.0649,.0273-.1276,.083-.1881,.0117-.013,.0654-.0638,.1631-.1525,.207-.1881,.4199-.4293,.6367-.7234,.2432-.3287,.4365-.6564,.5801-.9829,.1055-.2422,.2871-.3633,.5449-.3633,.0996,0,.1943,.0141,.2852,.0422,.208,.0649,.3125,.1784,.3125,.3406,0,.1276-.1094,.3568-.3301,.6877,.0146,.0043,.04,.0151,.0752,.0324,.3223,.1362,.7002,.2671,1.1338,.3925v-1.9528l-1.0234,.0454c-.0947,.1233-.2598,.1849-.4971,.1849-.334,0-.5205-.1081-.5576-.3244l-.3164-1.7744c-.0039-.0216-.0049-.0389-.0049-.0519,0-.1579,.1123-.2682,.3389-.3309,.084-.0238,.1768-.0357,.2764-.0357,.1992,0,.3496,.0411,.4521,.1233l3.8145-.2173c.0469-.0022,.0928-.0032,.1367-.0032,.4893,0,.7344,.1633,.7344,.4898,0,.0779-.0137,.159-.04,.2433l-.2764,.8694Zm-1.0723,.0292l.1582-.7915c.0049-.0216,.0078-.0389,.0078-.0519,0-.067-.0586-.1006-.1758-.1006h-.0654l-3.0459,.1752,.123,.9148,2.998-.146Z" fill="#be1622"/><g filter="url(#outer-glow-1)"><path d="M4.9305,1.6285s-1.383,.6466-1.6872,1.2452-.4979,1.0261,.2489,1.7101,.9681,.6199,.8021,1.3146-.4702,1.2505-.4702,1.2505c0,0,.9128-.4703,1.2447-.9619s.3596-1.2425-.2766-1.7983-.9494-.8096-.5853-1.5151,.7236-1.2452,.7236-1.2452Z" fill="#be1622"/><path d="M8.056,1.6285s-1.383,.6466-1.6872,1.2452-.4979,1.0261,.2489,1.7101,.9681,.6199,.8021,1.3146-.4702,1.2505-.4702,1.2505c0,0,.9128-.4703,1.2447-.9619s.3596-1.2425-.2766-1.7983-.9494-.8096-.5853-1.5151,.7236-1.2452,.7236-1.2452Z" fill="#be1622"/><path d="M11.1815,1.6285s-1.383,.6466-1.6872,1.2452-.4979,1.0261,.2489,1.7101,.9681,.6199,.8021,1.3146-.4702,1.2505-.4702,1.2505c0,0,.9128-.4703,1.2447-.9619s.3596-1.2425-.2766-1.7983-.9494-.8096-.5853-1.5151,.7236-1.2452,.7236-1.2452Z" fill="#be1622"/></g></g></svg>