<?xml version="1.0" encoding="UTF-8"?><svg id="Calque_1" xmlns="http://www.w3.org/2000/svg" viewBox="0 0 14.772 15.5738"><ellipse cx="7.386" cy="7.7869" rx="7.386" ry="7.7869" fill="#fff"/><path d="M11.2477,9.5426c0,2.1328-1.7289,3.8617-3.8617,3.8617s-3.8617-1.7289-3.8617-3.8617c0-2.8617,2.326-4.0941,3.1801-5.7854,.5812-1.1508,.6816-1.587,.6816-1.587,0,0-.0365,.3564,.6816,1.5851,1.0217,1.7483,3.1801,2.9681,3.1801,5.7872Z" fill="#312783"/><path d="M6.8844,12.5928c1.0617,.4577,2.9184-.9548,1.2652-1.0183-2.2128-.0851-4.0532-2.2872-4.0532-2.2872,.5333,2.9588,2.788,3.3056,2.788,3.3056Z" fill="#fff" opacity=".5"/></svg>