<?xml version="1.0" encoding="utf-8"?>
<!-- Generator: Adobe Illustrator 23.0.1, SVG Export Plug-In . SVG Version: 6.00 Build 0)  -->
<svg version="1.1" id="Calque_1" xmlns="http://www.w3.org/2000/svg" xmlns:xlink="http://www.w3.org/1999/xlink" x="0px" y="0px"
	 viewBox="0 0 842.3 596" style="enable-background:new 0 0 842.3 596;" xml:space="preserve">
<style type="text/css">
	.st0{fill:#C0E3EA;}
	.st1{fill:#FFFFFF;}
	.st2{opacity:0.8;fill:#FFFFFF;}
</style>
<rect class="st0" width="842.3" height="596"/>
<g>
	<path class="st1" d="M359.4,342.8c0,63.5-51,115-114,115c-63,0-114-51.5-114-115s51-115,114-115
		C308.4,227.8,359.4,279.3,359.4,342.8z M246.8,258c-47.1,0-85.4,38.2-85.4,85.2s38.2,85.2,85.4,85.2c47.1,0,85.4-38.2,85.4-85.2
		S293.9,258,246.8,258z"/>
	<path class="st1" d="M695.4,342.8c0,63.5-51,115-114,115s-114-51.5-114-115s51-115,114-115S695.4,279.3,695.4,342.8z M582.8,246.6
		c-53.5,0-96.8,43.3-96.8,96.6s43.3,96.6,96.8,96.6c53.5,0,96.8-43.3,96.8-96.6S636.2,246.6,582.8,246.6z"/>
	<path class="st1" d="M436.4,331.8c20.2,0,30,3.7,5,5C414.2,338.2,418.4,331.8,436.4,331.8z"/>
	<path class="st1" d="M294.4,272.3l-41.5,68l78.8,8.8l-2,14c0,0-84.5-17.8-85.8-18.3s-2.8-1.3,0.3-5.3s45.5-70,45.5-70L294.4,272.3z
		"/>
	<path class="st1" d="M541.6,255.5l36.2,80.6c2.7,4,5.7-0.1,4.7-2.7c-0.7-1.8-29.8-82.4-29.8-82.4L541.6,255.5z"/>
	<path class="st1" d="M549.9,158.6l-46,9.3c-2,0.7,2.2,9,4,8.8l41.5-8"/>
	<path class="st1" d="M325.1,203.6l-12.7-38.8c0,0-2.2-7.7-7-12.5c-2.3-2.3-6.3-4.6-8.5-8c-1-1.5-3.3-4.5,2.5-7s8.9,0.9,11,3.1
		c0,0,1.8,2.4,3.2,4.7c1.1,2,2.2,5.3,2.2,5.3l16.7,50.8C332.5,201.3,324.6,203.6,325.1,203.6z"/>
	<path class="st1" d="M372.4,353.8"/>
	<path class="st1" d="M261.4,335.8"/>
	<line class="st1" x1="548.4" y1="168.8" x2="549.4" y2="158.8"/>
	<path class="st1" d="M582.4,343.8"/>
	<path class="st1" d="M523.4,218.8"/>
	<path class="st1" d="M421.4,338.8l20-9c0,0,14.8-4.3,9,4l-63,37"/>
	<path class="st1" d="M366.4,366.8l-40,30c0,0-6,6,4,5l53-29"/>
	<path class="st1" d="M569.4,158.8c0,0,18.5,4.7,21.3-1c5-10,12.7-1.8,10.7,7c-3.1,13.5-3.4,12.6-3,35c0,0-3.3,3-7-4
		c-3.8-7.2,1.7-12.3,2-21.3c0,0,3.3-9.3-8-5.7"/>
	<path class="st2" d="M330.4,393.1c20.2,0,30,3.7,5,5C308.2,399.6,312.4,393.1,330.4,393.1z"/>
	<path class="st1" d="M280.1,129.3c-8.1,0-19.3-0.4-4.3,7.8c3.9,2.2,8.8,4.4,17.9,3.7c0,0,8.7-4.2,21.2-5.2c12.5-1,38.6-2,38.7-4.5
		C353.7,128.7,341.7,129.2,280.1,129.3z"/>
	<path class="st1" d="M384.4,348.8"/>
	<path class="st1" d="M548.9,168.8c0,0,29-4,26,10c0,0,1,19.3-31,24l2,8c48.7-7.3,38-43,34-48c-5.3-6.7-30-4-30-4"/>
	<path class="st2" d="M549.4,168.8c0,0,32-3,29,11c0,0,1,19.3-31,24l2,8c48.7-7.3,38-43,34-48c-5.3-6.7-33-5-33-5
		C545.9,159.3,545.4,168.8,549.4,168.8z"/>
	<path class="st1" d="M549.4,160.8"/>
	<g>
		<polygon class="st1" points="324.2,220 328.9,212.8 332.3,208.5 339.8,208.1 339.6,213.9 334.9,214.3 331.7,216.6 327.4,222.6 		
			"/>
		<path class="st1" d="M399.4,364.8c-2.3,3-12.3,8.3-16,8l-17.7-3.3l-122.3-22.7c-2,0-4.7-2.5-3-4.8l87.5-128.4l2,6.2l-80.5,122.1
			l122,11c1.7,0,5-1,4.7-1.7c-0.3-0.7-51.5-147.5-51.5-147.5l8.6-2.5l51.6,144.6c0,0,1,4,2.7,3l129.3-137.7c3.2-6.8-7.8-9.3-7.8-9.3
			l-170.8,12.8l-2.4-6.8l161.8-15.8c0,0,15.7-1,14.3-7.7c-1.3-6.7-8.2-19-8.2-19l13.2-2.8L587.7,339c0.8,2.3-2.8,3-3.9,1.2
			l-57.7-115.1c-0.8-1.5-0.2-2.2-4.2,2.4L399.4,364.8z"/>
	</g>
	<ellipse class="st1" cx="383.4" cy="362.3" rx="32" ry="31.5"/>
</g>
</svg>
