<?xml version="1.0" encoding="utf-8"?>
<!-- Generator: Adobe Illustrator 23.0.1, SVG Export Plug-In . SVG Version: 6.00 Build 0)  -->
<svg version="1.1" id="Calque_1" xmlns="http://www.w3.org/2000/svg" xmlns:xlink="http://www.w3.org/1999/xlink" x="0px" y="0px"
	 viewBox="0 0 842.3 596" style="enable-background:new 0 0 842.3 596;" xml:space="preserve">
<style type="text/css">
	.st0{fill:#FCF39F;}
	.st1{fill:#FFFFFF;}
</style>
<rect y="0" class="st0" width="842.3" height="596"/>
<g>
	<path class="st1" d="M463.5,247.7c-12.9-7.6-27.8-11.9-43.8-11.9c-16,0-31,4.4-43.8,11.9c-25.6,15.1-42.8,42.9-42.8,74.7
		c0,47.8,38.9,86.6,86.6,86.6c47.8,0,86.6-38.9,86.6-86.6C506.3,290.6,489.1,262.8,463.5,247.7z"/>
	<path class="st1" d="M632.1,194h-93.7l-32.3-60.8c-6.7-12.6-19.8-20.5-34.1-20.5H368.6c-14.3,0-27.4,7.9-34.1,20.5L302.2,194h-19.4
		v-0.2c0-7.7-6.2-13.9-13.9-13.9h-6.1c-1.5-2.7-4.3-4.5-7.5-4.5h-17.1c-3.2,0-6.1,1.8-7.5,4.5h-5.9c-7.7,0-13.9,6.2-13.9,13.9v0.2
		h-2c-24,0-43.5,19.5-43.5,43.5v202.2c0,24,19.5,43.5,43.5,43.5h423.4c24,0,43.5-19.5,43.5-43.5V237.5
		C675.6,213.5,656.2,194,632.1,194z M419.7,446.3c-68.3,0-123.9-55.6-123.9-123.9c0-28,9.4-53.9,25.1-74.7
		c22.6-29.9,58.5-49.2,98.8-49.2c40.3,0,76.1,19.3,98.8,49.2c15.8,20.8,25.1,46.7,25.1,74.7C543.6,390.7,488,446.3,419.7,446.3z
		 M627.5,264c-11.7,0-21.2-9.5-21.2-21.2c0-11.7,9.5-21.2,21.2-21.2c11.7,0,21.2,9.5,21.2,21.2C648.8,254.5,639.2,264,627.5,264z"/>
</g>
</svg>
